<mxfile host="app.diagrams.net" modified="2021-06-08T08:51:52.562Z" agent="5.0 (Windows NT 10.0; Win64; x64) AppleWebKit/537.36 (KHTML, like Gecko) Chrome/91.0.4472.77 Safari/537.36" etag="Raz1g9IIZMhuea_hBgdS" version="14.7.3" type="github">
  <diagram id="C5RBs43oDa-KdzZeNtuy" name="Page-1">
    <mxGraphModel dx="920" dy="2737" grid="1" gridSize="10" guides="1" tooltips="1" connect="1" arrows="1" fold="1" page="1" pageScale="1" pageWidth="827" pageHeight="1169" math="0" shadow="0">
      <root>
        <mxCell id="WIyWlLk6GJQsqaUBKTNV-0" />
        <mxCell id="WIyWlLk6GJQsqaUBKTNV-1" parent="WIyWlLk6GJQsqaUBKTNV-0" />
        <mxCell id="SLU1yk7_4L-SFGZeysTN-5" value="" style="edgeStyle=orthogonalEdgeStyle;rounded=0;orthogonalLoop=1;jettySize=auto;html=1;" edge="1" parent="WIyWlLk6GJQsqaUBKTNV-1" source="WIyWlLk6GJQsqaUBKTNV-3" target="SLU1yk7_4L-SFGZeysTN-4">
          <mxGeometry relative="1" as="geometry" />
        </mxCell>
        <mxCell id="WIyWlLk6GJQsqaUBKTNV-3" value="앱 시작" style="rounded=1;whiteSpace=wrap;html=1;fontSize=12;glass=0;strokeWidth=1;shadow=0;" parent="WIyWlLk6GJQsqaUBKTNV-1" vertex="1">
          <mxGeometry x="160" y="-530" width="120" height="40" as="geometry" />
        </mxCell>
        <mxCell id="SLU1yk7_4L-SFGZeysTN-2" value="앱 메인 홈" style="rounded=0;whiteSpace=wrap;html=1;" vertex="1" parent="WIyWlLk6GJQsqaUBKTNV-1">
          <mxGeometry x="150" y="570" width="120" height="60" as="geometry" />
        </mxCell>
        <mxCell id="SLU1yk7_4L-SFGZeysTN-3" value="" style="endArrow=none;html=1;exitX=1;exitY=0.5;exitDx=0;exitDy=0;" edge="1" parent="WIyWlLk6GJQsqaUBKTNV-1" source="SLU1yk7_4L-SFGZeysTN-2">
          <mxGeometry width="50" height="50" relative="1" as="geometry">
            <mxPoint x="430" y="810" as="sourcePoint" />
            <mxPoint x="1780" y="600" as="targetPoint" />
          </mxGeometry>
        </mxCell>
        <mxCell id="SLU1yk7_4L-SFGZeysTN-4" value="시작화면(홈)" style="rounded=0;whiteSpace=wrap;html=1;" vertex="1" parent="WIyWlLk6GJQsqaUBKTNV-1">
          <mxGeometry x="160" y="-400" width="120" height="60" as="geometry" />
        </mxCell>
        <mxCell id="SLU1yk7_4L-SFGZeysTN-6" value="" style="endArrow=none;html=1;exitX=1;exitY=0.5;exitDx=0;exitDy=0;startArrow=none;entryX=0;entryY=0.5;entryDx=0;entryDy=0;" edge="1" parent="WIyWlLk6GJQsqaUBKTNV-1" source="SLU1yk7_4L-SFGZeysTN-7" target="SLU1yk7_4L-SFGZeysTN-10">
          <mxGeometry width="50" height="50" relative="1" as="geometry">
            <mxPoint x="590" y="-170" as="sourcePoint" />
            <mxPoint x="960" y="-370" as="targetPoint" />
          </mxGeometry>
        </mxCell>
        <mxCell id="SLU1yk7_4L-SFGZeysTN-17" value="" style="edgeStyle=orthogonalEdgeStyle;rounded=0;orthogonalLoop=1;jettySize=auto;html=1;" edge="1" parent="WIyWlLk6GJQsqaUBKTNV-1" source="SLU1yk7_4L-SFGZeysTN-7" target="SLU1yk7_4L-SFGZeysTN-16">
          <mxGeometry relative="1" as="geometry" />
        </mxCell>
        <mxCell id="SLU1yk7_4L-SFGZeysTN-7" value="회원가입" style="rounded=0;whiteSpace=wrap;html=1;" vertex="1" parent="WIyWlLk6GJQsqaUBKTNV-1">
          <mxGeometry x="750" y="-400" width="120" height="60" as="geometry" />
        </mxCell>
        <mxCell id="SLU1yk7_4L-SFGZeysTN-8" value="" style="endArrow=none;html=1;exitX=1;exitY=0.5;exitDx=0;exitDy=0;" edge="1" parent="WIyWlLk6GJQsqaUBKTNV-1" source="SLU1yk7_4L-SFGZeysTN-4" target="SLU1yk7_4L-SFGZeysTN-7">
          <mxGeometry width="50" height="50" relative="1" as="geometry">
            <mxPoint x="280" y="-370" as="sourcePoint" />
            <mxPoint x="820" y="-370" as="targetPoint" />
          </mxGeometry>
        </mxCell>
        <mxCell id="SLU1yk7_4L-SFGZeysTN-12" value="" style="edgeStyle=orthogonalEdgeStyle;rounded=0;orthogonalLoop=1;jettySize=auto;html=1;" edge="1" parent="WIyWlLk6GJQsqaUBKTNV-1" source="SLU1yk7_4L-SFGZeysTN-9" target="SLU1yk7_4L-SFGZeysTN-11">
          <mxGeometry relative="1" as="geometry" />
        </mxCell>
        <mxCell id="SLU1yk7_4L-SFGZeysTN-9" value="로그인" style="rounded=0;whiteSpace=wrap;html=1;" vertex="1" parent="WIyWlLk6GJQsqaUBKTNV-1">
          <mxGeometry x="440" y="-400" width="120" height="60" as="geometry" />
        </mxCell>
        <mxCell id="SLU1yk7_4L-SFGZeysTN-31" value="" style="edgeStyle=orthogonalEdgeStyle;rounded=0;orthogonalLoop=1;jettySize=auto;html=1;" edge="1" parent="WIyWlLk6GJQsqaUBKTNV-1" source="SLU1yk7_4L-SFGZeysTN-10" target="SLU1yk7_4L-SFGZeysTN-30">
          <mxGeometry relative="1" as="geometry" />
        </mxCell>
        <mxCell id="SLU1yk7_4L-SFGZeysTN-10" value="회원탈퇴" style="rounded=0;whiteSpace=wrap;html=1;" vertex="1" parent="WIyWlLk6GJQsqaUBKTNV-1">
          <mxGeometry x="1030" y="-400" width="120" height="60" as="geometry" />
        </mxCell>
        <mxCell id="SLU1yk7_4L-SFGZeysTN-14" value="yes" style="edgeStyle=orthogonalEdgeStyle;rounded=0;orthogonalLoop=1;jettySize=auto;html=1;" edge="1" parent="WIyWlLk6GJQsqaUBKTNV-1" source="SLU1yk7_4L-SFGZeysTN-11" target="SLU1yk7_4L-SFGZeysTN-13">
          <mxGeometry x="0.1111" y="10" relative="1" as="geometry">
            <mxPoint as="offset" />
          </mxGeometry>
        </mxCell>
        <mxCell id="SLU1yk7_4L-SFGZeysTN-21" value="no" style="edgeStyle=orthogonalEdgeStyle;rounded=0;orthogonalLoop=1;jettySize=auto;html=1;" edge="1" parent="WIyWlLk6GJQsqaUBKTNV-1" source="SLU1yk7_4L-SFGZeysTN-11" target="SLU1yk7_4L-SFGZeysTN-20">
          <mxGeometry y="10" relative="1" as="geometry">
            <mxPoint as="offset" />
          </mxGeometry>
        </mxCell>
        <mxCell id="SLU1yk7_4L-SFGZeysTN-11" value="로그인&lt;br&gt;오류가&lt;br&gt;있는가" style="rhombus;whiteSpace=wrap;html=1;rounded=0;" vertex="1" parent="WIyWlLk6GJQsqaUBKTNV-1">
          <mxGeometry x="460" y="-160" width="80" height="80" as="geometry" />
        </mxCell>
        <mxCell id="SLU1yk7_4L-SFGZeysTN-37" style="edgeStyle=orthogonalEdgeStyle;rounded=0;orthogonalLoop=1;jettySize=auto;html=1;entryX=0.5;entryY=0;entryDx=0;entryDy=0;" edge="1" parent="WIyWlLk6GJQsqaUBKTNV-1" source="SLU1yk7_4L-SFGZeysTN-13" target="SLU1yk7_4L-SFGZeysTN-2">
          <mxGeometry relative="1" as="geometry" />
        </mxCell>
        <mxCell id="SLU1yk7_4L-SFGZeysTN-13" value="로그인 성공" style="whiteSpace=wrap;html=1;rounded=0;" vertex="1" parent="WIyWlLk6GJQsqaUBKTNV-1">
          <mxGeometry x="440" y="10" width="120" height="60" as="geometry" />
        </mxCell>
        <mxCell id="SLU1yk7_4L-SFGZeysTN-29" value="yes" style="edgeStyle=orthogonalEdgeStyle;rounded=0;orthogonalLoop=1;jettySize=auto;html=1;" edge="1" parent="WIyWlLk6GJQsqaUBKTNV-1" source="SLU1yk7_4L-SFGZeysTN-16" target="SLU1yk7_4L-SFGZeysTN-28">
          <mxGeometry x="0.1111" y="10" relative="1" as="geometry">
            <mxPoint as="offset" />
          </mxGeometry>
        </mxCell>
        <mxCell id="SLU1yk7_4L-SFGZeysTN-16" value="가입 &lt;br&gt;오류가&lt;br&gt;있는가?" style="rhombus;whiteSpace=wrap;html=1;rounded=0;" vertex="1" parent="WIyWlLk6GJQsqaUBKTNV-1">
          <mxGeometry x="770" y="-160" width="80" height="80" as="geometry" />
        </mxCell>
        <mxCell id="SLU1yk7_4L-SFGZeysTN-20" value="해당오류출력" style="whiteSpace=wrap;html=1;rounded=0;" vertex="1" parent="WIyWlLk6GJQsqaUBKTNV-1">
          <mxGeometry x="280" y="-150" width="120" height="60" as="geometry" />
        </mxCell>
        <mxCell id="SLU1yk7_4L-SFGZeysTN-23" value="" style="endArrow=none;html=1;exitX=0.5;exitY=0;exitDx=0;exitDy=0;" edge="1" parent="WIyWlLk6GJQsqaUBKTNV-1" source="SLU1yk7_4L-SFGZeysTN-20">
          <mxGeometry width="50" height="50" relative="1" as="geometry">
            <mxPoint x="390" y="-180" as="sourcePoint" />
            <mxPoint x="500" y="-240" as="targetPoint" />
            <Array as="points">
              <mxPoint x="340" y="-240" />
            </Array>
          </mxGeometry>
        </mxCell>
        <mxCell id="SLU1yk7_4L-SFGZeysTN-24" value="해당오류출력" style="whiteSpace=wrap;html=1;rounded=0;" vertex="1" parent="WIyWlLk6GJQsqaUBKTNV-1">
          <mxGeometry x="590" y="-150" width="120" height="60" as="geometry" />
        </mxCell>
        <mxCell id="SLU1yk7_4L-SFGZeysTN-25" value="no" style="edgeStyle=orthogonalEdgeStyle;rounded=0;orthogonalLoop=1;jettySize=auto;html=1;" edge="1" target="SLU1yk7_4L-SFGZeysTN-24" parent="WIyWlLk6GJQsqaUBKTNV-1">
          <mxGeometry y="10" relative="1" as="geometry">
            <mxPoint x="770" y="-120" as="sourcePoint" />
            <mxPoint as="offset" />
          </mxGeometry>
        </mxCell>
        <mxCell id="SLU1yk7_4L-SFGZeysTN-27" value="" style="endArrow=none;html=1;exitX=0.5;exitY=0;exitDx=0;exitDy=0;" edge="1" parent="WIyWlLk6GJQsqaUBKTNV-1" source="SLU1yk7_4L-SFGZeysTN-24">
          <mxGeometry width="50" height="50" relative="1" as="geometry">
            <mxPoint x="650" y="-190" as="sourcePoint" />
            <mxPoint x="810" y="-240" as="targetPoint" />
            <Array as="points">
              <mxPoint x="650" y="-240" />
            </Array>
          </mxGeometry>
        </mxCell>
        <mxCell id="SLU1yk7_4L-SFGZeysTN-28" value="가입 처리 후&lt;br&gt;홈 화면 이동" style="whiteSpace=wrap;html=1;rounded=0;" vertex="1" parent="WIyWlLk6GJQsqaUBKTNV-1">
          <mxGeometry x="750" y="10" width="120" height="60" as="geometry" />
        </mxCell>
        <mxCell id="SLU1yk7_4L-SFGZeysTN-30" value="탈퇴&lt;br&gt;오류가 &lt;br&gt;있는가?" style="rhombus;whiteSpace=wrap;html=1;rounded=0;" vertex="1" parent="WIyWlLk6GJQsqaUBKTNV-1">
          <mxGeometry x="1050" y="-160" width="80" height="80" as="geometry" />
        </mxCell>
        <mxCell id="SLU1yk7_4L-SFGZeysTN-32" value="해당오류출력" style="whiteSpace=wrap;html=1;rounded=0;" vertex="1" parent="WIyWlLk6GJQsqaUBKTNV-1">
          <mxGeometry x="870" y="-150" width="120" height="60" as="geometry" />
        </mxCell>
        <mxCell id="SLU1yk7_4L-SFGZeysTN-33" value="" style="endArrow=none;html=1;exitX=0.5;exitY=0;exitDx=0;exitDy=0;" edge="1" source="SLU1yk7_4L-SFGZeysTN-32" parent="WIyWlLk6GJQsqaUBKTNV-1">
          <mxGeometry width="50" height="50" relative="1" as="geometry">
            <mxPoint x="930" y="-190" as="sourcePoint" />
            <mxPoint x="1090" y="-240" as="targetPoint" />
            <Array as="points">
              <mxPoint x="930" y="-240" />
            </Array>
          </mxGeometry>
        </mxCell>
        <mxCell id="SLU1yk7_4L-SFGZeysTN-34" value="no" style="edgeStyle=orthogonalEdgeStyle;rounded=0;orthogonalLoop=1;jettySize=auto;html=1;" edge="1" target="SLU1yk7_4L-SFGZeysTN-32" parent="WIyWlLk6GJQsqaUBKTNV-1">
          <mxGeometry y="10" relative="1" as="geometry">
            <mxPoint x="1050" y="-120" as="sourcePoint" />
            <mxPoint as="offset" />
          </mxGeometry>
        </mxCell>
        <mxCell id="SLU1yk7_4L-SFGZeysTN-35" value="탈퇴 처리 후&lt;br&gt;홈 화면 이동" style="whiteSpace=wrap;html=1;rounded=0;" vertex="1" parent="WIyWlLk6GJQsqaUBKTNV-1">
          <mxGeometry x="1030" y="10" width="120" height="60" as="geometry" />
        </mxCell>
        <mxCell id="SLU1yk7_4L-SFGZeysTN-36" value="yes" style="edgeStyle=orthogonalEdgeStyle;rounded=0;orthogonalLoop=1;jettySize=auto;html=1;" edge="1" target="SLU1yk7_4L-SFGZeysTN-35" parent="WIyWlLk6GJQsqaUBKTNV-1">
          <mxGeometry x="0.1111" y="10" relative="1" as="geometry">
            <mxPoint x="1090.0000000000002" y="-80" as="sourcePoint" />
            <mxPoint as="offset" />
          </mxGeometry>
        </mxCell>
      </root>
    </mxGraphModel>
  </diagram>
</mxfile>
